<?xml version="1.0" encoding="UTF-8"?>
<svg id="Calque_1" xmlns="http://www.w3.org/2000/svg" version="1.1" viewBox="0 0 841.89 595.28">
  <!-- Generator: Adobe Illustrator 29.3.1, SVG Export Plug-In . SVG Version: 2.1.0 Build 151)  -->
  <defs>
    <style>
      .st0 {
        fill: #fed600;
      }

      .st1 {
        fill: #c1010a;
      }

      .st2 {
        fill: #030301;
      }

      .st3 {
        fill: #fefdfa;
      }

      .st4 {
        fill: #fefefe;
      }
    </style>
  </defs>
  <g>
    <path class="st4" d="M586.51,309.87v123.84H219.81v-123.84h366.7ZM412.87,372.16c.91-1.91-4.78-13.74-5.44-16.84-1.98-9.39-.2-13.76,1.22-22.49.29-1.74.2-3.41.43-5,.27-1.84,2.61-8.25.88-9.39-1.34-.89-1.37.76-1.6.99-.36.37-1.75.12-2.2,1.57-.57,1.82.34,2.31.46,3.51.17,1.62-1.57,4.96-1.97,6.74-.87,3.88-.87,7.45-3.03,11.14-.12.2-.62.75-.73.63-.14-2.21.26-4.03-1.08-6.01-2.34-3.45-6.64-2.23-7.3,1.71-.6,3.6.4,6.4-1.14,10.32-.86,2.19-2.37,3-3.63,4.85-1.62-.53-7.57-3.24-7.66-4.98-.04-.7,2.21-5.51,2.75-6.29.82-1.19,2.26-2.08,3.09-3.24,4.35-6.01-.51-15.41-5.85-8.86-3.99,4.9-.6,8.18-.92,13.25-.04.61-.66,4.21-.86,4.5-.34.47-1.26-.4-1.71,1.36-.36,1.43.14,2.18.15,3.44,0,.21-.18,1.71-.58,1.7.7-4.82-3.67-7.3-6.94-9.79,1.92-.94,2.61-4.41,1.5-6.17.97-.13,2.11-.08,2.02-1.32-.08-1.15-1.3-.92-1.93-1.49s-.86-1.84-1.92-2.45c-2.99-1.72-7.4-.38-8.36,3.06l-.37,3.09c-.93-2.65-3.89-13.95-5.76-15.2-2.08-1.38-4.26,1.15-3.02,3.31l6.66,15.8c-3.61-.53-9.49-.62-12.36,1.98-3.15,2.85,1.75,3.24,3.44,3.76.6.18,1,.65,1.6.81,1.39.37,2.87.32,4.25.72-.05.74.35,1.57.35,2.23,0,3.04-.81,6.6-.92,9.63-.04,1.14.49,2.39.28,3.89-.84,6.01-5.33,9.68-5.12,17.82.04,1.43.92,4.12.83,5.06-.19,2.03-5.89,8.61-2.8,10.46,2.28,1.36,5.76-1.96,6.67-3.92,1.22-2.64.28-4.44.8-6.73.19-.82,1.27-2.21,1.61-3.51.28-1.07.2-2.13.6-3.32.92-2.76,3.9-5.64,4.97-8.44.45.07.67,1.03.83,1.43,1.32,3.39,1.76,4.08,3.46,7.09.66,1.16.66,2.45,1.18,3.65.73,1.68,1.9,1.8,1.78,3.94-.12,2.05-1.02,2.49.05,4.78,2.16,4.62,9.17,6.49,7.59.25-.55-2.18-3.08-4.57-3.36-6.61-.33-2.45.39-5.39-.15-8.57-.81-4.75-5.18-15.63-4.71-19.35.13-1,1.62-4.35,2.6-4.63s2.18.11,3.19-.12c.63-.14,1.07-.85,1.57-.85.27,0,.13,1.25,1.46.87,1.21-.35,1-2.78,1.85-2.67,2.44.33,5.4,5,8.74,4.51,1.83-.27,4.64-3.9,5.96-5.21.27-.26.25-.66.85-.51.72,3.36,1.77,5.57,1.47,9.15-.27,3.17-2.09,8.16-1.49,11.17.09.47,1.14-.71.92,1.82-.51,5.83-5.29,12.83-4.51,19.57.05.45.53.75.56,1.21.06.98-1.07,3.04-.58,4.38,1.83.34,1.82-.5,1.81-2.11.52.15.74.91,1.35.91,1.2,0,.41-1.15.44-1.68.22-3.73.07-6.64,1.56-10.19.96-2.27,2.69-4.42,3.51-6.74.55-1.54,1.01-6.07,1.55-6.82.37-.52,4.09-.7,4.51-.45.29.18,2.51,5.66,2.63,6.26.28,1.38-.27,2.39-.17,3.78.12,1.68,1.2,3.43,1.23,5.13.02,1.13-.67,2.19-.57,2.94.18,1.33,2.25,3.22,2.54,4.44.16.65-.85,1.51-.49,2.41l3.62.3c-.24-1.25.27-2.8.17-3.93-.16-1.73-1.82-3.31-1.99-4.95-.25-2.48.8-6.05.63-9.06-.11-1.9-1.59-6.31-1.53-7.2.01-.17.47-.16.51-.25ZM526.75,336.08c6.55-1.17,5.04-10.82-1.83-9.22-2.17.51-3.85,3.19-3.54,5.37.17,1.13,1.67,3.51,2.3,4.65,2.11,3.82,4.81,7.42,7.74,10.65,1.99,2.2,4.29,3.04,4.65,6.21.37,3.3.33,9.86-.91,12.88s-3.59,2.27-5.1,3.95c-.39.43-1.37,3.1-1.45,3.71-.22,1.69,1.08,1.18,1.83,2.25,1.56,2.21,1.99,5.39.76,7.84-.47.93-1.98,1.76-2.27,2.85-.57,2.11.96,3.56,2.86,2.27l5.17-5.09c1.2-2.26-2.51-4.76-.85-7.63,1.07-.24,1.97.76,3.01.47s2-2.11,3.01-2.59l.91,11.75,3.32-.9c.93,2.87,1.36,4.91,1.21,7.98-.1,2.03-1.23,5.73-.77,7.41.13.46.28.62.74.74,2.07.57,3.09-.06,3.79-1.98,2.15-5.93-1.58-15.63-.13-22.15l-.92-9.32,1.81-.3c-2.92-2.71-3.62-6.6-3.92-10.4,3.93,3.47,8.63,5.6,13.18,8.08.92.5,6.15,4.53,4.8.34-.69-2.13-9.87-7.04-12.25-9.17-2.07-1.85-2.57-3.33-4.09-5.26-1.42-1.79-4.07-1.7-4.52-2.43-.77-1.23,1.19-2.41,1.51-3.33,1.06-3.06-2.08-6-5.11-5.4-1.84.36-3.77,4.72-2.81,6.42.18.32,1.8,1.21.85,1.7.08-.58-.3-.54-.64-.72-4.86-2.62-9.47-6.91-12.35-11.63ZM483.22,331.93c-.22-.23-2.37-.66-2.82-.68-2.21-.07-3.6,1.44-5.11,2.72-.29.25-.81.26-1.04.47-1.01.87-.7,3.08-.65,4.17.02.35-.36.81-.25,1.2.1.34.67.37.8.56.2.31.12,1,.42,1.54.09.17,1.83,2.54,1.97,2.62.4.24.99.14,1.39.29.53.2-.2.86,1.73-.02.28,4.34,1.29,8.85,2.5,13.02.97,3.34,4.94,12.3,4.37,15.08-.2.96-1.29,2.36-1.66,3.46-.61,1.8-.7,3.72-1.07,5.56-.18.87-1.15,1.81-.54,2.73.19.28.68.36.78.51.51.81-2.88,3.38-2.21,5.52.48,1.55,2.27.71,2.36.81.14.16.55,3.31.82,4.15,2.25,7.01,5.82,2.12,5.82-2.64l.94,3.73c3.96,4.4,4.82-1.32,5.35-4.52.19-1.12.45-5.95.77-6.46.28-.43,1.21-.26,1.68-.28-.55-2.6-.66-5.31-1.3-7.89-.62-2.52-2.22-4.82-1.65-7.56.17-.82.97-1.56,1.12-2.5.28-1.76-.54-3.42-.21-5.04.43-2.14,3.97-5.93,5.11-8.15.97-1.89,1.95-6.87,4.1-7.38.77-.18,1.53.48,2.29.21.37-.13.38-.67.57-.79.39-.25.9.09,1.41-.56s.8-3.04,1.08-4.04c.13-.46.64-.8.75-1.37.25-1.36-.53-1.73-.57-2.38-.02-.3.39-.98.27-1.07-.1-.08-.76.14-1.14-.08-.81-.47-1.49-1.77-1.96-2.26-.72-.76-1.31.11-1.58.11-.2,0-.62-.48-1.19-.51-1.06-.05-2.13.07-3.18.02.67,1.74-.02.91-1.2,1.67s-2.41,2.52-2.44,3.92c-.04,1.84,1.24,1.56-1.19,2.4,1.95.4,3.14,2.84,2.41,4.67l.91.15c-.93,2.28-1.94,4.56-3.37,6.58-.34.48-2.73,3.6-3.27,3.21-.68-2.28.12-5.52-2.56-6.66-1.66-.7-3.95.36-4.74,1.93l-1.14,5.03c-1-1.54-4.92-12.89-4.23-13.56.07-.07,1.54.13,2.04-.37s.24-1.84.41-2.02c.12-.12.74.05.84-.04.33-.33-.52-2.44-.27-2.69.31-.31,1.43.77.7-2.07-.29-1.14-1.12-1.01.2-2.46-1.91.51-1.26.26-2.15-.42-.22-.17-.65-.13-.79-.26-.26-.25-.13-1.04-.45-1.36ZM305.72,335.88c-4.35-4.08-10.26,2.33-6.98,6.51,1.32,1.68,3.33,1.63,5.27,1.52.46,2.91-2.78,4.54-2.36,7.6.39,2.85,5.07,6.27,5.31,7.67.08.46-1.24,2.17-1.5,2.9-1.14,3.09-.46,9.18-.54,12.72-.12,5.93-.67,10.71.43,16.72.21,1.17.91,2.41,1.04,3.48.11.87-.39,3.03-.27,3.14.63.58,2.22-1.29,2.92-1.74,1.17-.75,3.46-1.29,4.18-1.86.84-.67.67-2.02.76-2.11.09-.09,2.19-.07,2.55,0,.49.09,3.04,2.52,3.15,2.92.15.59-.98,1.62-.57,2.5l2.11-.6.6,3.31c.63-2.7,1.35-5.35.61-8.13,2.57.63,1.53-2.35,2.71-3.77,3.86-1.09,6.97-.25,10.24,1.84,1.21.77,3.77,3.42,5.01,3.42,1.49,0,1.87-1.34,1.43-2.61-.35-.98-3.6-5.15-4.44-5.81-1.86-1.48-3.13-.26-5.07-.66-1.04-.21-2.07-1.23-3.41-1.41-1.25-.17-3.72.28-4.65-.18-.53-.26-.78-1.32-1.2-1.81-4.53-5.22-8.22-6.08-7.21-14.44.27-2.2.79-.71,1.31-.17,1.95,2.04,4.48,4.64,6.84,6.14,1.28.82,3.38,1.45,4.35,2.28,1.38,1.18,1.15,2.64,3.69,3.25.7.17,4.26.76,4-.38s-4.94-3.99-6.01-4.85c-2.88-2.34-6.59-5.46-8.77-8.42-.92-1.25-1.57-3.05-2.56-4.07s-4.72-2.34-4.36-3.7,3.34-2.37,1.84-5.24c-2.18-4.15-7.48-2.68-8.21,1.72-1.37-1.11-2.23-1.51-2.08-3.42.24-2.9,2.25-8.03,2.07-10.57-.04-.54-1.75-3.25-2.21-3.67ZM464.88,380.98c-.34-3.79-5.06-4.42-6.39-7.32-.99-2.15-1.28-5.15-2.13-7.52-1.29-3.59-3.41-6.81-4.12-10.65-.27-1.47.27-2.32-.63-3.89-1.09-1.93-7.07-4.69-7.22-5.16-.36-1.12,1.34-2.36,1.47-3.6.06-.57-.31-3.43-.52-3.96-.78-1.96-4.44-3.03-6.23-1.85-.59.39-2.53,4.51-2.59,5.28-.12,1.83,2.3,2.69,1.35,4.64-.13.27-4.13,2.6-4.99,3.46-2.43,2.44-1.38,4.12-1.5,6.93-.11,2.36-1.33,4.91-1.5,7.24-.16,2.07.52,3.86.22,5.94-.51,3.52-3.78,7.85-4.61,11.66-.7,3.23-.86,6.97-1.44,10.32-.3,1.71-1.83,6.2-1.26,7.47.73,1.62,3.83,1.24,4.64-.18.81-3.45.93-6.66,2.4-9.96.62-1.39,1.93-4.46,3.66-3.4.78.88-3.98,6.14-1.93,9.31.76,1.18,2.21,1.07,3.23.33,1.89-1.39,2.52-6.78,3.54-7.39,1.23-.74,3.97.71,4.23.46l3.63-15.67c.22-.23,2.77,3.98,2.41-2.86-.16-3.04-1.05-6.6.46-9.49.84,2.02,1.22,4.32,2.12,6.32.84,1.87,2.38,3.39,3.22,5.22.79,1.73,1.86,7.8,3.48,8.29,2.02.61,1.5-1.55,1.75-1.45l2.12,2.41.45-1.2,2.71.3ZM277.5,354.42c-.77-1.21,2.11-5.08-.66-7.32-1.77-1.43-4.95-1.32-6.15.76-.29.5-.38,1.55-.54,1.72-.27.27-1.33.1-1.46.57-.5,1.94,1.1,1.19,1.55,1.8.5.68.11,2.1.34,2.91.21.74.93.79,1.26,1.09.69.64-.29.65-.72,1.06-2.23,2.13-3.18,3.26-6.56,3.71-.99.13-6.15-.32-7.08-.61-4.12-1.29-11.27-6.87-15.18-6.87-2.42,0-2.5,1.82-1.14,3.35l15.87,5.77c.83.37.85,2.04,1.61,2.3,1.1.38,2.65-.37,3.88-.27,2.07.18,2.39.68,5.13.62,2.78-.06,3.6-.69,3.49,2.56s-1.17,2.36-2.89,3.77c-1.33,1.08-4.41,4.11-5.41,5.44-1.89,2.51-3.74,8.81-5.3,10.38-.98.98-4.57,2.01-4.99,2.86-.59,1.19.32,2.67,1.66,2.72-4.03,2.72.55,3.49,2.72,4.99.64.27,1.11-.49,1.65-.5.09,0,.61,1.34,1.38.78.82-.59.02-3.89-.28-4.85,1.05-1.69.55-3.9,1.64-5.55.89-1.33,3.33-2.5,4.52-3.92.71-.85,1.31-2.55,1.97-3.16.27-.25,4.38-2.32,4.8-2.43,2.22-.58,2.85.66,4.24,2.11,2.33,2.42,4.48,5.1,6.7,7.63,2.56-.13,5.05,1.74,7.4,2.1,1.28.2,4.46-.36,5.07.98.18.39-.18.84-.1,1.28.07.36.6.63.55,1.26-.02.24-1.02,1.95-1.23,2.12-.82.68-4.59.88-5.87,1.07-.41.06-.95.14-.46.59.11.1,2.49.61,2.86.63,1.16.05,2.25-.47,3.33-.35.72.08,1.14.66,1.77.63,1.43-.07,2.35-2.11,3.8-.91l-.6,1.2c2.31.62,3.19-.32,3.32-2.61.03-.56-.55-.22-.63-.84-.31-2.35,1.73-6.44-.17-7.97s-3.92-.58-5.93-1.31c-1.19-.43-2-1.47-3.12-2.01-2.02-.97-4.55-.71-6.15-2.3-.81-.8-5.33-7.65-5.6-8.57-.32-1.08-.02-2.27-.21-3.41s-1.13-2.21-1.14-3.38c0-1.07.75-2.51.88-3.65.32-2.87-.45-5.62-2.7-7.49-.32-.26-1.07-.39-1.14-.51ZM462.69,383.47c-6.55.94-6.87,11.22,0,12.19,9.87,1.4,9.61-13.58,0-12.19Z"/>
    <path class="st1" d="M412.87,372.16c-.04.09-.5.08-.51.25-.06.89,1.42,5.29,1.53,7.2.17,3.01-.88,6.58-.63,9.06.16,1.64,1.83,3.22,1.99,4.95.1,1.14-.4,2.69-.17,3.93l-3.62-.3c-.36-.9.65-1.75.49-2.41-.29-1.21-2.36-3.11-2.54-4.44-.1-.75.59-1.81.57-2.94-.03-1.7-1.11-3.45-1.23-5.13-.1-1.39.45-2.39.17-3.78-.12-.6-2.35-6.08-2.63-6.26-.41-.26-4.13-.08-4.51.45-.54.75-1,5.28-1.55,6.82-.82,2.32-2.55,4.47-3.51,6.74-1.5,3.55-1.34,6.46-1.56,10.19-.03.53.76,1.69-.44,1.68-.61,0-.83-.76-1.35-.91,0,1.61.02,2.45-1.81,2.11-.5-1.34.64-3.4.58-4.38-.03-.45-.51-.76-.56-1.21-.78-6.75,4-13.74,4.51-19.57.22-2.53-.83-1.35-.92-1.82-.6-3.01,1.22-8,1.49-11.17.3-3.58-.75-5.79-1.47-9.15-.59-.15-.58.24-.85.51-1.33,1.31-4.13,4.94-5.96,5.21-3.35.49-6.3-4.18-8.74-4.51-.86-.11-.64,2.32-1.85,2.67-1.33.38-1.19-.87-1.46-.87-.5,0-.93.7-1.57.85-1.02.23-2.26-.15-3.19.12s-2.48,3.63-2.6,4.63c-.46,3.72,3.91,14.6,4.71,19.35.54,3.18-.18,6.11.15,8.57.28,2.05,2.81,4.43,3.36,6.61,1.57,6.24-5.43,4.36-7.59-.25-1.07-2.3-.17-2.74-.05-4.78.13-2.14-1.04-2.27-1.78-3.94-.52-1.19-.52-2.48-1.18-3.65-1.7-3.01-2.14-3.7-3.46-7.09-.16-.4-.37-1.36-.83-1.43-1.08,2.81-4.05,5.69-4.97,8.44-.4,1.19-.32,2.25-.6,3.32-.34,1.31-1.43,2.7-1.61,3.51-.52,2.29.42,4.09-.8,6.73-.91,1.96-4.4,5.28-6.67,3.92-3.09-1.85,2.61-8.42,2.8-10.46.09-.95-.79-3.64-.83-5.06-.21-8.14,4.27-11.81,5.12-17.82.21-1.5-.32-2.75-.28-3.89.11-3.03.92-6.59.92-9.63,0-.66-.41-1.49-.35-2.23-1.38-.4-2.87-.35-4.25-.72-.6-.16-1-.63-1.6-.81-1.69-.52-6.59-.91-3.44-3.76,2.87-2.6,8.75-2.51,12.36-1.98l-6.66-15.8c-1.25-2.17.94-4.7,3.02-3.31,1.87,1.25,4.83,12.55,5.76,15.2l.37-3.09c.96-3.44,5.37-4.78,8.36-3.06,1.06.61,1.31,1.9,1.92,2.45s1.85.34,1.93,1.49c.09,1.24-1.06,1.19-2.02,1.32,1.1,1.76.41,5.24-1.5,6.17,3.27,2.49,7.64,4.97,6.94,9.79.4,0,.58-1.49.58-1.7,0-1.25-.51-2.01-.15-3.44.45-1.76,1.37-.89,1.71-1.36.2-.28.82-3.89.86-4.5.32-5.06-3.07-8.35.92-13.25,5.34-6.56,10.21,2.85,5.85,8.86-.84,1.15-2.28,2.05-3.09,3.24-.54.78-2.79,5.59-2.75,6.29.09,1.73,6.04,4.44,7.66,4.98,1.26-1.85,2.77-2.65,3.63-4.85,1.54-3.92.53-6.71,1.14-10.32.66-3.94,4.97-5.16,7.3-1.71,1.34,1.98.94,3.8,1.08,6.01.11.12.61-.43.73-.63,2.16-3.68,2.16-7.26,3.03-11.14.4-1.78,2.14-5.12,1.97-6.74-.13-1.2-1.04-1.69-.46-3.51.45-1.45,1.84-1.19,2.2-1.57.23-.24.26-1.88,1.6-.99,1.73,1.15-.61,7.55-.88,9.39-.23,1.58-.14,3.25-.43,5-1.43,8.73-3.2,13.1-1.22,22.49.65,3.11,6.35,14.93,5.44,16.84ZM394.25,394.54v-4.67c0-3.07,3.93-7.96,4.97-11.01.52-1.52.95-6.28,1.64-7.1.63-.74,5.01-.99,5.93-.45.68.4,3.26,6.48,3.39,7.48.15,1.14-.36,2.38-.21,3.8.24,2.2,1.45,3.46,1.16,6.04-.07.63-.61.94-.46,1.67.26,1.3,2.16,3.16,2.6,4.52.33.06.58-.01.76-.29.57-.86-1.85-4.33-1.98-5.88-.22-2.72.83-6.16.62-9.35-.15-2.34-1.4-4.95-1.52-6.66-.07-1.02.68-1.27.55-2.29-.44-3.61-4.19-10.01-5.23-14.1-2.53-9.95.03-18.69,1.39-28.43.36-2.59,1.56-4.83,1.47-7.42-3.66.66-1.42,2.48-1.58,4.58-.15,2.02-1.44,4.47-1.89,6.57-.97,4.42-1.2,6.08-2.88,10.38-.44,1.13-.09,2.15-1.97,2.28s-1.19-3.14-1.36-4.35c-.36-2.62-3.14-5.37-5.27-2.6-1.34,1.74-.54,5.42-.78,7.66-.41,3.94-1.45,5.41-3.88,8.18-.39.44-.9,1.61-1.22,1.81-1.2.74-6.65-2.41-7.82-3.35s-1.4-2.34-3.04-1.93c-.39,2.98,1.2,1.86,2.92,2.66,1.77.82,5.36,4.22,6.89,4.29,2.57.11,5.17-5,7.09-5.9.67-.31,1.1-.3,1.44.36.32.62,1.68,5.52,1.79,6.34.6,4.34-1.25,7.95-1.44,11.98-.08,1.63.5,1.25.59,1.58,1.4,5.21-4.28,15.15-4.43,21.4-.03,1.17.46,2.12,1.73,2.17ZM353.76,325.29c-1.15-.65-1.83.81-1.39,1.83,2.33,5.91,5.2,11.68,7.17,17.7-4.47-.19-10.18-1.43-13.57,2.26.94,1.17,2.59.79,3.69,1.13.59.18,1.16.77,2.02,1,3.23.86,4.62-.61,4.73,3.95.09,3.83-.56,7.65-.48,11.69.08,4.07-2.58,7.52-3.86,11.23-.99,2.87-1.5,6.23-1.29,9.28.08,1.23.94,3.64.86,4.44-.18,1.85-4.32,6.63-3.82,8.44.72,2.64,4.89-1.5,5.51-2.83,1.11-2.39-.13-4.94,1.03-7.41,1.29-2.75.94-3.31,1.72-5.82.68-2.2,4.21-6.95,5.57-9.5.54-1.02.98-1.11,1.59-.05,1.23,2.15,1.42,5.28,2.89,7.66,1.68,2.7,1.4,2.44,2.55,5.29.39.97,1.74,2.03,1.96,2.86.82,3.12-2.12,3.73.99,7.45,1.33,1.59,2.33,2.28,4.52,1.97.64-3.17-2.42-5.43-3.23-8.07-.67-2.17.22-5.78-.17-8.57-.76-5.4-5.61-16.57-4.98-20.8.21-1.42,2.03-5.16,3.46-5.58,1.99-.59,4.66,1.27,3.57-2.78-.83-3.08-7.43-6.32-7.68-7.1-.45-1.43,1.95-.78,2.41-1.53.17-.28.59-2.3.59-2.68-.01-.85-1.13-2.01-.23-2.77.27-.22,1.05-.07,1.12-.68-2.08-.63-1.37-2.51-3.68-3.11-3.69-.96-6.27,1.26-5.66,5.05.35,2.18,3.54,4.88-1.22,5.29-.45-2.35-5.75-18.69-6.69-19.23ZM383,330.42c-3.01.67-4.1,9.13-1.57,9.59,3.65.66,5.42-6.7,3.61-9.05-.55-.72-1.18-.73-2.04-.54ZM361.96,343.01c.25-.29-.88-2.82-1.5-3.01-.16.39.88,3.72,1.5,3.01Z"/>
    <path class="st1" d="M526.75,336.08c2.87,4.72,7.49,9.01,12.35,11.63.34.18.72.13.64.72.95-.5-.66-1.38-.85-1.7-.96-1.7.97-6.06,2.81-6.42,3.03-.6,6.17,2.35,5.11,5.4-.32.92-2.27,2.1-1.51,3.33.45.72,3.1.63,4.52,2.43,1.52,1.93,2.02,3.4,4.09,5.26,2.38,2.12,11.56,7.04,12.25,9.17,1.35,4.2-3.88.17-4.8-.34-4.55-2.49-9.24-4.61-13.18-8.08.3,3.8,1,7.69,3.92,10.4l-1.81.3.92,9.32c-1.45,6.52,2.28,16.22.13,22.15-.7,1.92-1.73,2.55-3.79,1.98-.46-.13-.62-.28-.74-.74-.47-1.69.67-5.38.77-7.41.15-3.07-.27-5.11-1.21-7.98l-3.32.9-.91-11.75c-1,.48-1.99,2.3-3.01,2.59s-1.95-.7-3.01-.47c-1.66,2.87,2.06,5.37.85,7.63l-5.17,5.09c-1.9,1.29-3.43-.16-2.86-2.27.29-1.09,1.8-1.92,2.27-2.85,1.23-2.45.79-5.63-.76-7.84-.75-1.07-2.06-.57-1.83-2.25.08-.6,1.06-3.27,1.45-3.71,1.51-1.68,3.84-.87,5.1-3.95s1.29-9.58.91-12.88c-.36-3.17-2.66-4.01-4.65-6.21-2.93-3.23-5.63-6.83-7.74-10.65-.63-1.14-2.13-3.52-2.3-4.65-.32-2.18,1.37-4.86,3.54-5.37,6.88-1.61,8.38,8.05,1.83,9.22ZM525.24,334.88c2.14.33,4.38-.85,4.55-3.17.28-3.99-4.84-5.31-6.72-1.86-1.05,1.93-.26,2.87.61,4.63,1.87,3.79,4.94,8.09,7.74,11.25,2.52,2.84,5.5,4.2,5.88,8.29.33,3.49.31,11.41-1.67,14.29-1.33,1.93-3.59,1.97-4.67,3.17-.3.33-1.24,2.69-1.21,3,.02.23,1.19.54,1.53,1,.3.4,2.13,4.91,2.12,5.35,0,.21-.78,3.32-.9,3.64-.61,1.6-2.83,2.45-2.44,4.34.66.74,3.7-3.24,4.08-3.61s1.92-1.2,1.97-1.42c.28-1.17-1.36-2.57-1.5-4.2-.04-.46.21-3.81.32-3.98.6-.97,3.06.62,3.69.5.86-.17,2.92-3.71,4.11-3.12l.6.93.92,10.99,3.01-.91c.03,1.85,1.19,3.56,1.43,5.35.5,3.7-.55,7.55-.83,11.22,1.52.24,2.15-.48,2.51-1.86,1.25-4.75-.68-10.11-.73-14.86-.04-4.52-.08-8.36-.29-12.94-.06-1.33.33-2.94.28-3.95-.02-.44-1.06-1.84-1.32-2.55-1.21-3.26-1.41-6.79-1.36-10.24,2.25,2.76,4.9,4.84,7.94,6.68l10.16,5.53c-3.58-3.99-9.18-5.79-12.98-9.63-1.22-1.24-2.88-4.57-3.62-5.13-1.32-1-4.23-.53-4.51-2.75s1.89-2.66,1.83-4.48c-.07-2.07-3.29-4.13-4.81-2.07-.4.55-1.33,2.63-1.26,3.26.08.73,1.12,1.15,1.38,1.95.41,1.28.26,3.27-1.46,2.73-.27-.08-.52-.86-.97-1.21-3.39-2.6-6.28-4.25-9.36-7.53-1.7-1.8-3.8-4.07-4.07-6.63Z"/>
    <path class="st1" d="M277.5,354.42c.07.12.83.25,1.14.51,2.25,1.87,3.02,4.62,2.7,7.49-.13,1.14-.88,2.58-.88,3.65,0,1.17.95,2.27,1.14,3.38s-.12,2.33.21,3.41c.28.92,4.8,7.76,5.6,8.57,1.59,1.59,4.12,1.33,6.15,2.3,1.12.54,1.93,1.58,3.12,2.01,2.01.73,4.12-.14,5.93,1.31s-.15,5.61.17,7.97c.08.61.66.28.63.84-.13,2.28-1.01,3.23-3.32,2.61l.6-1.2c-1.45-1.2-2.37.84-3.8.91-.63.03-1.05-.55-1.77-.63-1.08-.12-2.17.4-3.33.35-.37-.02-2.76-.53-2.86-.63-.5-.45.05-.53.46-.59,1.29-.19,5.06-.39,5.87-1.07.21-.17,1.21-1.88,1.23-2.12.05-.63-.48-.9-.55-1.26-.08-.43.28-.88.1-1.28-.61-1.34-3.8-.78-5.07-.98-2.36-.36-4.84-2.24-7.4-2.1-2.21-2.53-4.37-5.2-6.7-7.63-1.39-1.45-2.03-2.69-4.24-2.11-.43.11-4.53,2.18-4.8,2.43-.66.61-1.26,2.31-1.97,3.16-1.18,1.43-3.63,2.59-4.52,3.92-1.09,1.64-.6,3.85-1.64,5.55.3.96,1.1,4.25.28,4.85-.77.56-1.29-.79-1.38-.78-.53,0-1.01.76-1.65.5-2.16-1.51-6.75-2.27-2.72-4.99-1.35-.05-2.25-1.53-1.66-2.72.42-.85,4-1.88,4.99-2.86,1.56-1.56,3.41-7.86,5.3-10.38,1-1.33,4.08-4.36,5.41-5.44,1.72-1.4,2.77-.59,2.89-3.77s-.71-2.62-3.49-2.56c-2.75.06-3.06-.44-5.13-.62-1.23-.11-2.77.65-3.88.27-.77-.27-.79-1.93-1.61-2.3l-15.87-5.77c-1.36-1.53-1.28-3.35,1.14-3.35,3.91,0,11.06,5.59,15.18,6.87.93.29,6.09.74,7.08.61,3.38-.45,4.33-1.57,6.56-3.71.43-.41,1.41-.42.72-1.06-.32-.3-1.05-.35-1.26-1.09-.23-.81.16-2.22-.34-2.91-.45-.61-2.04.14-1.55-1.8.12-.47,1.19-.3,1.46-.57.16-.17.25-1.21.54-1.72,1.2-2.08,4.38-2.19,6.15-.76,2.78,2.24-.11,6.11.66,7.32ZM296.47,396.95c.29.32,2.04-1.11,2.59-1.2,1.17-.19,1.58.5,2.14.56,1.26.13.17-1.8.16-2.52-.03-2.03,2.59-5.74-.88-6.41-1.47-.29-2.67.07-4.3-.53-1.29-.47-1.89-1.44-3.12-2.01-1.67-.76-4.03-.83-5.55-1.69-1.13-.64-6.28-8.48-6.71-9.87-.44-1.41-.15-2.54-.39-3.83-.18-.95-1.08-2-1.16-3.09-.2-2.79,1.91-4.29.38-8.19-.8-2.05-3.07-2.78-3.32-3.62-.66-2.23,1.78-4.78-.35-6.59-1.12-.95-3.54-.82-4.26.38-.07.12-.82,2.28-.83,2.4-.01.19.92,3.53,1,3.71.25.55,2.06,1.57,1.52,2.42-.22.34-1.19.63-1.58,1.01-2.59,2.49-3.77,3.79-7.8,4.11-1.74.14-2.31-.52-3.33-.59-.3-.02-1.94.3-1.96.46-.47,2.61,1.94,1.26,3.49,1.32,1.34.05,2.44.88,3.63.94,1.31.07,4.48-.84,5.58-.17.96.58,1,3.72.83,4.76-.47,2.85-1.92,2.49-3.7,3.84-3.42,2.59-5.72,6.4-7.65,10.14-1.11,2.15-1.23,4.4-3.38,5.96-.68.5-4.07,1.69-3.9,2.43.25,1.06,4.48,1.22,5.42,1.04.26-1.51.3-3.2.97-4.6.9-1.89,3.82-3.22,5.24-5.02.66-.84.9-1.88,1.64-2.58.88-.84,5.03-2.96,6.23-3.12,2.09-.28,2.3.12,3.6,1.47,1.41,1.47,6.26,7.65,7.41,8.27.32.17,6.37,2.13,6.84,2.21,2.03.34,5.31-.64,6.27,1.87,1.11,2.9-.35,3.74-.76,6.33ZM252.7,359.58c.13-.62-.31-.7-.69-.96-1.42-.95-7.33-3.82-8.88-4.09s-2.48.25-.9,1.2c2.73,1.63,7.5,2.37,10.47,3.85ZM258.71,393.97c-.16-.14-2.59-.05-3.1,0-.34.03-1.86.1-1.69.71,1.59,1.24,3.18,1.29,5.13,1.36.1-.1-.24-2-.33-2.07Z"/>
    <path class="st1" d="M483.22,331.93c.32.33.19,1.12.45,1.36.14.14.57.09.79.26.89.68.24.94,2.15.42-1.32,1.45-.49,1.32-.2,2.46.73,2.83-.38,1.76-.7,2.07-.25.25.6,2.36.27,2.69-.1.09-.72-.08-.84.04-.17.17.09,1.51-.41,2.02s-1.97.3-2.04.37c-.69.67,3.24,12.02,4.23,13.56l1.14-5.03c.79-1.56,3.08-2.63,4.74-1.93,2.68,1.14,1.88,4.38,2.56,6.66.53.39,2.92-2.73,3.27-3.21,1.44-2.02,2.44-4.29,3.37-6.58l-.91-.15c.72-1.83-.46-4.27-2.41-4.67,2.43-.84,1.15-.56,1.19-2.4.03-1.4,1.3-3.18,2.44-3.92s1.86.08,1.2-1.67c1.05.05,2.13-.07,3.18-.02.58.03,1,.51,1.19.51.27,0,.87-.87,1.58-.11.46.49,1.14,1.78,1.96,2.26.37.22,1.03,0,1.14.08.11.09-.29.77-.27,1.07.03.65.82,1.02.57,2.38-.11.58-.62.91-.75,1.37-.28,1.01-.56,3.37-1.08,4.04s-1.01.31-1.41.56c-.19.12-.21.66-.57.79-.76.27-1.52-.4-2.29-.21-2.16.51-3.13,5.49-4.1,7.38-1.14,2.22-4.68,6.01-5.11,8.15-.33,1.62.5,3.28.21,5.04-.15.93-.95,1.67-1.12,2.5-.57,2.73,1.03,5.03,1.65,7.56.63,2.58.74,5.3,1.3,7.89-.47.02-1.41-.15-1.68.28-.32.5-.59,5.34-.77,6.46-.54,3.2-1.4,8.93-5.35,4.52l-.94-3.73c0,4.76-3.57,9.66-5.82,2.64-.27-.84-.68-3.99-.82-4.15-.09-.1-1.88.73-2.36-.81-.66-2.15,2.72-4.72,2.21-5.52-.09-.15-.59-.22-.78-.51-.61-.91.37-1.86.54-2.73.37-1.85.46-3.76,1.07-5.56.37-1.11,1.46-2.5,1.66-3.46.57-2.78-3.41-11.75-4.37-15.08-1.21-4.17-2.22-8.68-2.5-13.02-1.93.87-1.2.22-1.73.02-.4-.15-.99-.05-1.39-.29-.14-.08-1.88-2.46-1.97-2.62-.3-.54-.22-1.23-.42-1.54-.13-.2-.7-.22-.8-.56-.11-.39.27-.85.25-1.2-.05-1.09-.36-3.31.65-4.17.24-.2.75-.22,1.04-.47,1.51-1.28,2.9-2.8,5.11-2.72.45.02,2.59.45,2.82.68ZM480.27,332.46c-.06-.07-1.75.24-1.81.31-.03.03.3.5.25.71-.22.83-1.49.27-1.99.55-.1.06-.35.74-.64,1.01-.75.71-1.53.77-1.48,2.09.03.82.58,1.45.78,2.18.36,1.3-.44,3.11,1.58,1.29-.12,1.8-.26,3.09,1.98,2.88.69-.07.93-.85,1.64-.77.38,4.65,1.19,9.19,2.44,13.69,1.1,3.95,5.38,13.35,4.67,16.77-.26,1.23-1.27,2.49-1.69,3.74-.78,2.33-.53,4.87-1.8,6.94,3.97.87-1.62,4.7-1.21,6.31.36,1.38,1.96-.93,2.41-1.04-.87,1.91,1.73,12.95,3.72,6.87.63-1.93.53-3.97.51-5.96,3.26.36,2.28,5.86,3.81,6.89,1.24.84,1.53-.41,1.83-1.41,1-3.32.83-7.28,1.6-10.68.14-.52,1.12-.27,1.23-.72s-.59-4.45-.77-5.24c-.67-2.99-2.55-5.98-1.9-9.11.19-.92,1.01-1.59,1.15-2.77.18-1.62-.58-3.13-.24-4.76.47-2.27,4.31-6.47,5.53-8.94,1.07-2.18,1.77-6.62,4.3-7.46.8-.27,3.54-.29,3.92-.76.19-.23,1.64-5.46,1.59-5.75-.03-.17-2.08-2.14-2.43-2.46-.25-.23-.27-.73-.3-.76-.32-.24-.98.68-1.34.6-.41-.09-.55-1.43-1.37-1.2l.3.9c-2.15-.04-5.46.89-5.43,3.47,0,.51.73,4.24.91,4.37.16.12,1.08-.45,1.2-.3-.14.86.35,1.68.29,2.52-.07,1.04-2.78,6.3-3.49,7.39-.49.75-3.85,4.93-4.46,4.82-2.88-.5-.25-8.8-4.73-7.38-3.07.97-1.67,5.61-3.08,7.78-.24.37-.27.64-.83.52-1.01-2.75-2.67-5.2-3.64-7.97-.54-1.55-2.12-7.09-1.74-8.39s2.22-.67,2.36-.81c.06-.06,0-1.15.08-1.57.53-2.76,1.76-3.65-.13-6.07-.14-.18-1.38-1.51-1.47-1.57-.55-.36-1.82.43-2.1.16-.1-.09.08-.81,0-.9Z"/>
    <path class="st1" d="M305.72,335.88c.45.42,2.17,3.13,2.21,3.67.18,2.55-1.83,7.68-2.07,10.57-.16,1.92.7,2.32,2.08,3.42.73-4.4,6.03-5.87,8.21-1.72,1.51,2.87-1.46,3.83-1.84,5.24s3.41,2.72,4.36,3.7,1.64,2.82,2.56,4.07c2.18,2.96,5.89,6.08,8.77,8.42,1.06.86,5.76,3.72,6.01,4.85s-3.31.55-4,.38c-2.54-.61-2.31-2.07-3.69-3.25-.97-.83-3.07-1.46-4.35-2.28-2.35-1.51-4.89-4.11-6.84-6.14-.52-.54-1.04-2.03-1.31.17-1.01,8.35,2.68,9.22,7.21,14.44.43.49.68,1.55,1.2,1.81.94.45,3.4,0,4.65.18,1.34.18,2.37,1.2,3.41,1.41,1.94.4,3.21-.82,5.07.66.84.67,4.09,4.83,4.44,5.81.45,1.27.06,2.61-1.43,2.61-1.23,0-3.79-2.64-5.01-3.42-3.27-2.08-6.38-2.92-10.24-1.84-1.19,1.42-.14,4.4-2.71,3.77.74,2.78.02,5.43-.61,8.13l-.6-3.31-2.11.6c-.41-.88.72-1.91.57-2.5-.1-.4-2.66-2.83-3.15-2.92-.35-.07-2.46-.08-2.55,0-.08.09.09,1.43-.76,2.11-.72.58-3.01,1.11-4.18,1.86-.7.45-2.3,2.32-2.92,1.74-.12-.11.38-2.26.27-3.14-.13-1.07-.83-2.31-1.04-3.48-1.1-6.02-.55-10.8-.43-16.72.07-3.55-.6-9.64.54-12.72.27-.73,1.58-2.45,1.5-2.9-.24-1.39-4.92-4.82-5.31-7.67-.42-3.06,2.82-4.69,2.36-7.6-1.94.11-3.95.16-5.27-1.52-3.29-4.18,2.62-10.6,6.98-6.51ZM305.22,344.82c.9-.62,1.7-4.67,1.46-5.5-.14-.47-2.04-2.93-2.55-3.19-3.18-1.63-6.81,2.87-4.2,5.7,2.06,2.23,5.77-.98,5.3,3ZM308.84,355.37c-.79.76-3.92-2.7-4.15-3.54-.47-1.75.75-3.7.53-5.5-.95.99-2.44,3.32-2.42,4.68.03,2.71,5.42,6.35,5.42,8.43,0,.84-1.2,2.08-1.55,2.95-1.12,2.84-.45,8.81-.53,12.13-.14,5.74-.77,10.98.38,16.77.3,1.51,1.05,2.89,1.12,4.46l4.65-2.14c.71-.4.42-1.57.85-2.01.46-.48,2.68-.46,3.38-.35,2.21.35,3.04,2.86,5,3.59.18-2-1.85-2.87-1.2-5.12l2.56,1.51c.61-.12.46-2.74,1.38-3.45,1.26-.97,6.45-.77,8.05-.23,3.26,1.1,5.5,3.86,8.54,5.18.67-.71-3.82-6.13-4.72-6.59-1.09-.56-2.46.16-3.86-.06-1.1-.17-2.19-1.21-3.41-1.41-1.56-.26-3.78.28-5.13-.3-1.03-.44-1.3-1.91-2.03-2.79-1.85-2.22-4.64-3.75-5.95-6.42-1.09-2.23-1.98-8.22-.39-10.13,1.56-1.88,2.11.49,2.85,1.34,1.76,2.04,6.5,6.19,9.02,6.97.46.14.74.32.64-.33-2.25-2.11-5.16-4.42-7.09-6.78-1.12-1.36-1.78-3.17-2.86-4.38s-4.13-2.25-4.68-3.46c-1.22-2.68,4.01-4.01,1.33-6.75-2.93-3-5.74.63-5.71,3.75ZM328.46,374.05c.22-.42-.19-.8-.3-.6-.22.42.19.8.3.6ZM332.68,376.16l-3.02-1.21c.59,1.14.37,1.69,1.81,1.66.25,0,1.3-.04,1.21-.46Z"/>
    <path class="st1" d="M464.88,380.98l-2.71-.3-.45,1.2-2.12-2.41c-.24-.1.28,2.06-1.75,1.45-1.62-.49-2.68-6.56-3.48-8.29-.84-1.82-2.38-3.35-3.22-5.22-.9-2-1.27-4.3-2.12-6.32-1.51,2.9-.62,6.46-.46,9.49.37,6.84-2.19,2.63-2.41,2.86l-3.63,15.67c-.26.25-3-1.2-4.23-.46-1.02.62-1.65,6-3.54,7.39-1.02.75-2.47.85-3.23-.33-2.05-3.16,2.71-8.42,1.93-9.31-1.73-1.07-3.04,2.01-3.66,3.4-1.47,3.3-1.59,6.52-2.4,9.96-.8,1.42-3.91,1.8-4.64.18-.58-1.27.96-5.77,1.26-7.47.58-3.35.74-7.09,1.44-10.32.83-3.82,4.1-8.14,4.61-11.66.3-2.08-.37-3.87-.22-5.94.18-2.33,1.39-4.89,1.5-7.24.13-2.81-.93-4.49,1.5-6.93.85-.86,4.85-3.18,4.99-3.46.95-1.95-1.47-2.8-1.35-4.64.05-.77,1.99-4.89,2.59-5.28,1.79-1.18,5.45-.11,6.23,1.85.21.53.59,3.39.52,3.96-.14,1.23-1.83,2.48-1.47,3.6.15.48,6.13,3.24,7.22,5.16.89,1.58.36,2.43.63,3.89.71,3.84,2.83,7.05,4.12,10.65.85,2.37,1.14,5.37,2.13,7.52,1.33,2.9,6.05,3.54,6.39,7.32ZM462.07,378.36c-.7-.76-2.81-1.58-3.68-2.5-1.59-1.68-2.19-6.65-3.03-9.03-1.33-3.78-3.54-6.96-4.29-11.08-.23-1.23.19-2.34-.42-3.5-.97-1.86-7.16-4.36-7.46-5.21-.69-1.98,1.23-3.07,1.41-4.23.05-.32-.32-3.32-.47-3.63-.58-1.27-3.19-1.69-4.31-1.13-.27.13-2.09,3.86-2.11,4.25-.07,1.29,2.4,2.58,1.28,5.17-.51,1.17-4.73,2.59-5.95,4.61s-.35,3.14-.46,4.95c-.16,2.56-1.34,5.04-1.51,7.55-.14,2.13.57,4.05.22,6.25-.55,3.46-3.77,7.72-4.62,11.36-.64,2.72-.65,5.99-1.13,8.82s-1.45,5.76-1.72,8.68c3.73.59,2.64-2.28,3.1-4.6.31-1.58,3.14-9.51,4.21-10.11.48-.27,1.4.23,1.91-.36s1.39-3.94,1.91-5.03c.42-.88,1.84-3.77,1.87-1.15.03,2.04-1.65,7.17-2.26,9.5-.35,1.34-1.81,2.96-2.14,4.49-.44,2.08.33,4.31,2.12,2.12,2.28-2.79,1-9.05,7.1-6.92.62-1.84,3.04-14.83,3.64-15.35.37-.31,2,.39,2.09.28-.11-2.84-.53-5.72-.3-8.58.06-.72.91-6.75,2.44-4.79,1.05,1.34,1.83,5.7,2.63,7.55.91,2.1,2.63,3.72,3.52,5.83.41.96,1.45,5.52,1.67,5.72.11.11,1.81-.83,3.01.17.24.2.34,1.2.89.72.18-.15-.38-1.12,1.07.01.17-.11-.19-.75-.25-.81ZM462.92,379.17v.3c.2-.1.2-.2,0-.3Z"/>
    <path class="st1" d="M462.69,383.47c9.61-1.38,9.87,13.6,0,12.19-6.87-.98-6.55-11.25,0-12.19ZM467.49,393.23c4.49-4.49-2.63-12.27-7.3-7.14-4.66,5.12,2.92,11.52,7.3,7.14Z"/>
    <path class="st3" d="M383,330.42c.86-.19,1.49-.17,2.04.54,1.81,2.34.04,9.71-3.61,9.05-2.53-.46-1.44-8.92,1.57-9.59Z"/>
    <path class="st3" d="M361.96,343.01c-.62.71-1.66-2.62-1.5-3.01.62.19,1.76,2.72,1.5,3.01Z"/>
    <path class="st2" d="M462.92,379.17c.2.1.2.2,0,.3v-.3Z"/>
    <path class="st1" d="M319.1,389.71c-1.47,0-5.48-.19-6.51-1.18-.65-.64-1.15-6.27,1.08-4.99,1.21,2.05,3.59,3.46,4.98,5.27.23.3.59.38.45.9ZM316.69,388.51c-.27-.44-2.97-3.4-3.32-3.01-.54,3.08.79,2.68,3.32,3.01Z"/>
  </g>
  <g>
    <path class="st1" d="M258.44,262.24c4.68,1.97,8.79,5.91,11.14,10.14,0-.03.02-.05.03-.08,4.49-2.79,9.95-2.2,14.78-.14,1.53.65,3.05,1.3,4.58,1.95,12.21,5.46,17.5,13.02,15.84,20-1.86,7.81-2.86,16.29-2.86,25.44h-79c0-16.36,1.74-31.55,4.97-45.59,3.22-13.75,13.92-18.86,24.53-14.21,1.99.83,3.99,1.66,5.98,2.49ZM256.46,304.43c.58-6.72,1.54-13.17,2.85-19.35.86-4.09-1.97-8.6-6.51-10.06-.39-.12-.77-.24-1.16-.36-4.45-1.44-9.34,1.15-10.34,5.88-1.49,7-2.57,14.3-3.22,21.91,6.13.66,12.26,1.33,18.39,1.99ZM282.49,283.36c-4.53-1.5-9.13.32-9.98,4.17-1.28,5.84-2.21,11.95-2.76,18.34,6.04.65,12.08,1.31,18.11,1.96.47-5.47,1.26-10.7,2.36-15.7.7-3.21-2.31-6.98-6.94-8.51-.27-.09-.54-.17-.8-.26Z"/>
    <path class="st1" d="M301.97,264.19c4.81-8.66,10.75-16.24,17.54-22.74,3.17,3.24,6.35,6.48,9.52,9.72-7.88,7.54-14.45,16.74-19.15,27.61-24.11-11.42-48.23-22.84-72.34-34.26,2.12-4.91,4.45-9.64,6.98-14.18,19.15,11.28,38.3,22.56,57.46,33.84Z"/>
    <path class="st1" d="M306.76,168.87c11.99-6.58,26.14-.59,30.76,11.32,4.29,10.24,8.58,20.47,12.87,30.71,4.62,11.86,3.14,23.41-2.91,26.78-1.5.82-2.97,1.69-4.42,2.6-5.85,3.6-17.25-.3-26.03-9.7-7.43-8.38-14.87-16.77-22.3-25.15-8.83-9.43-7.63-24.58,3.89-31.78,2.67-1.67,5.38-3.26,8.14-4.78ZM326.02,185.95c-2.52-4.91-7.65-7.6-12.26-5.08-2.48,1.37-4.93,2.8-7.34,4.31-4.45,2.79-4.37,8.46-1.01,12.88,6.36,8.54,12.73,17.08,19.09,25.62,3.37,4.44,7.95,6.81,10.88,4.97,1.63-1.02,3.28-1.99,4.96-2.91,3.03-1.67,2.94-6.68.42-11.61-4.92-9.39-9.83-18.78-14.75-28.17Z"/>
    <path class="st1" d="M386.47,205.2c-.36-4.35-.72-8.7-1.08-13.05-3.41.25-6.81.63-10.19,1.12-.67-4.07-1.34-8.13-2-12.2,7.44-1.09,14.97-1.64,22.5-1.65.03,15.38.05,30.76.08,46.14-2.53,0-5.07.1-7.6.29-.07-.83-.14-1.67-.21-2.5-1.78,1.71-3.71,2.84-5.82,3.12-1.51.2-3.01.43-4.51.7-6.8,1.16-15.8-6.77-20.28-18.68-3.64-10.46-7.27-20.93-10.91-31.39-4.52-11.96,2.37-25.21,15.8-27.58,3.43-.61,6.88-1.12,10.34-1.54,12.88-1.53,22.17,7.82,22.98,19.57-4.41,0-8.83.19-13.23.54-1.21-3.99-3.59-7-7.99-6.48-3.13.38-6.24.84-9.34,1.39-5.19.92-7.47,6.17-6.06,11.48,2.6,10.2,5.2,20.4,7.8,30.6,1.41,5.32,4.85,9.18,8.27,8.58,2.2-.39,4.41-.71,6.62-.98,2.88-.34,4.48-3.43,4.82-7.46Z"/>
    <path class="st1" d="M464,229.03c10.9-2.31,23.11-4.06,34.83-4.21,6.45-.12,9.46-.12,14.81-4.65,4.15-3.43,4.75-9.53,1.2-13.22-1.49-1.55-3-3.06-4.55-4.54-3.75-3.58-9.84-2.97-13.33,1.12-.62.71-1.24,1.42-1.86,2.14-2.94-2.47-5.98-4.81-9.1-7.01,1.05-1.41,2.1-2.82,3.15-4.23,6.63-9.35,20.44-11.43,29.55-2.91,2.63,2.46,5.19,5.02,7.66,7.68,8.58,9.2,6.55,23.27-2.99,29.7-.49.35-.98.69-1.46,1.04-7.85,5.65-13.05,7.54-22.52,7.18-11.15-.42-22.5.54-32.13,1.88,5.89,5.04,11.23,10.84,15.85,17.39-3.24,2.35-6.48,4.69-9.72,7.04-5.63-7.98-12.46-14.7-20.11-20.16,3.57-4.75,7.14-9.49,10.71-14.24Z"/>
    <path class="st1" d="M532.84,312.07c-.29-.25-.58-.5-.87-.75-.23.28-.47.56-.71.84-1.95,2.3-4.24,4.04-6.92,5.14-7.03,3.11-14.09,2.74-21.07.37-4.94-1.62-9.19-4.49-11.69-7.81-3.67-4.96-3.6-9.51-4.72-14.55-1.56-7.07,4.94-16.04,15.49-20.83.72-.31,1.44-.61,2.16-.92,1.17,3.08,2.22,6.26,3.15,9.54-1.16.38-2.36.93-3.33,1.63-4.54,3.1-4.27,8.41-3.38,12.03.64,2.47,1.49,5.15,3.77,7.08,2.9,2.45,8.31,2.79,12.83,1.11,3.87-1.41,6.11-4.57,6.27-9.16.16-2.03-.06-4.44-.6-7.11-.26-1.26-.53-2.51-.82-3.74,3.88-1.06,7.75-2.12,11.63-3.18.31,1.35.61,2.71.89,4.09.59,2.91,1.21,5.45,1.99,7.51.71,2.17,1.6,4.05,2.88,5.41,3.48,3.7,9.97,4.09,13.26-1.92,4.09-6.9-.92-28.73-12.03-24.63-1.2-4.26-2.57-8.39-4.09-12.39.75-.32,1.5-.63,2.25-.95,12.34-5.64,24.25,4.96,27.17,20.06,1.4,7.29,1.36,8.46,1.41,8.56.29,2.51.44,5.07.35,7.55-.23,4.47-1.51,9.6-3.66,13.32-2.3,4.11-5.5,7.39-9.1,8.99-8.18,3.6-16.34,1.54-22.52-5.28Z"/>
  </g>
  <g>
    <path class="st0" d="M457.64,161.02c5.67,3.26,7.75,9.68,6.04,15.96-2.05,7.54-5.05,15.01-7.11,22.57-6.84,14.86-29.33,7.76-25.56-8.72,1.82-7.95,5.59-16.36,7.79-24.29,3.57-6.66,12-9.44,18.84-5.52Z"/>
    <path class="st1" d="M431.19,206.64c9.6,10.05,25.14,5.87,29.92-6.68.98-2.56,1.77-5.52,2.61-8.16.07-.21.07-.43.08-.64.31-.3,3.63,1.2,4.32,1.13-.74,2.81-1.56,5.71-2.52,8.47-3.67,10.56-11.71,15.96-22.9,15.95-.4,0-.81-.34-1.02.09l-2.74,8.9,8.5,2.57-1.29,4.34-25.81-8.04c.34-.57,1.15-4.23,1.54-4.32l8.56,2.55,2.66-8.75-.13-.36c-1.35-.64-2.71-1.63-3.84-2.62-5.2-4.59-8.07-11.97-7.48-19.01.37-4.44,2.71-8.93,3.67-13.28.57.37,4.21,1.14,4.31,1.54-.8,2.87-2,5.76-2.75,8.62-1.74,6.64-.4,12.76,4.31,17.69Z"/>
  </g>
</svg>